<svg width="20" height="20" viewBox="0 0 20 20" fill="none" xmlns="http://www.w3.org/2000/svg">
<path d="M16.4583 6.09169H14.8917C14.7333 3.52503 12.6033 1.48669 10 1.48669C7.39667 1.48669 5.26667 3.52669 5.10834 6.09169H3.54167C2.50834 6.09169 1.66667 6.93086 1.66667 7.9667V16.4917C1.66667 17.525 2.50834 18.3667 3.54167 18.3667H16.4583C17.4917 18.3667 18.3333 17.525 18.3333 16.4917V7.9667C18.3333 6.9317 17.4917 6.09169 16.4583 6.09169V6.09169ZM10.625 13.0725V14.2359C10.625 14.5809 10.345 14.8609 10 14.8609C9.65501 14.8609 9.37501 14.5809 9.37501 14.2359V13.0725C8.73834 12.8225 8.28584 12.2059 8.28584 11.4809C8.28584 10.5334 9.05251 9.76586 10 9.76586C10.9467 9.76586 11.7142 10.5325 11.7142 11.4792C11.7142 12.2042 11.2617 12.8209 10.625 13.0709V13.0725ZM6.37334 6.09169C6.53167 4.21669 8.08751 2.73669 10 2.73669C11.9125 2.73669 13.4692 4.21753 13.6267 6.08919H6.37334V6.09169Z" fill="#D9D9D9"/>
</svg>
